<svg width="32" height="32" viewBox="0 0 32 32" fill="none" xmlns="http://www.w3.org/2000/svg">
<path d="M31.0106 18.3414C30.9055 18.4202 30.786 18.4775 30.6588 18.5101C30.5316 18.5427 30.3992 18.5499 30.2692 18.5314C30.1392 18.5128 30.0141 18.4688 29.9011 18.4019C29.7881 18.335 29.6894 18.2465 29.6106 18.1414C29.0079 17.3312 28.2233 16.6739 27.3201 16.2223C26.417 15.7707 25.4204 15.5375 24.4106 15.5414C24.214 15.5414 24.0217 15.4834 23.8578 15.3747C23.694 15.2659 23.5658 15.1113 23.4893 14.9302C23.4374 14.8071 23.4107 14.6749 23.4107 14.5414C23.4107 14.4079 23.4374 14.2757 23.4893 14.1527C23.5658 13.9715 23.694 13.8169 23.8578 13.7081C24.0217 13.5994 24.214 13.5414 24.4106 13.5414C24.9717 13.5414 25.5215 13.384 25.9976 13.0871C26.4738 12.7902 26.8571 12.3658 27.1041 11.862C27.351 11.3581 27.4518 10.7952 27.3948 10.237C27.3379 9.67879 27.1256 9.14775 26.782 8.70418C26.4383 8.26061 25.9772 7.9223 25.451 7.72767C24.9247 7.53304 24.3544 7.48989 23.8049 7.60313C23.2553 7.71637 22.7486 7.98145 22.3421 8.36826C21.9357 8.75508 21.6459 9.24813 21.5056 9.7914C21.4728 9.91862 21.4152 10.0381 21.3362 10.1431C21.2572 10.2481 21.1583 10.3364 21.0451 10.4032C20.9319 10.4699 20.8067 10.5137 20.6766 10.5321C20.5465 10.5504 20.4141 10.543 20.2868 10.5102C20.1596 10.4773 20.0401 10.4198 19.9352 10.3407C19.8302 10.2617 19.7418 10.1628 19.6751 10.0496C19.6083 9.93646 19.5645 9.81125 19.5462 9.68116C19.5278 9.55106 19.5353 9.41862 19.5681 9.2914C19.7628 8.53804 20.1306 7.84052 20.6423 7.25434C21.154 6.66816 21.7955 6.20949 22.5157 5.91484C23.2358 5.62019 24.0148 5.49768 24.7906 5.55706C25.5665 5.61645 26.3178 5.85609 26.9847 6.25692C27.6516 6.65774 28.2158 7.20869 28.6323 7.86592C29.0489 8.52316 29.3062 9.26854 29.384 10.0427C29.4618 10.817 29.3578 11.5986 29.0803 12.3256C28.8028 13.0525 28.3595 13.7047 27.7856 14.2302C29.1454 14.8189 30.3274 15.7532 31.2143 16.9402C31.2931 17.0455 31.3504 17.1653 31.3828 17.2928C31.4152 17.4203 31.4221 17.5529 31.4032 17.683C31.3843 17.8132 31.3398 17.9384 31.2725 18.0513C31.2051 18.1643 31.1161 18.2629 31.0106 18.3414ZM24.2756 26.0414C24.3479 26.1552 24.3965 26.2825 24.4184 26.4156C24.4403 26.5487 24.4351 26.6848 24.403 26.8158C24.3709 26.9468 24.3126 27.0699 24.2317 27.1778C24.1508 27.2857 24.0489 27.3762 23.9321 27.4436C23.8154 27.5111 23.6861 27.5543 23.5523 27.5706C23.4184 27.5868 23.2826 27.5759 23.1531 27.5383C23.0235 27.5007 22.9029 27.4373 22.7985 27.3519C22.6942 27.2665 22.6081 27.1609 22.5456 27.0414C21.9157 25.9747 21.0185 25.0907 19.9426 24.4767C18.8668 23.8626 17.6494 23.5396 16.4106 23.5396C15.1718 23.5396 13.9544 23.8626 12.8786 24.4767C11.8027 25.0907 10.9055 25.9747 10.2756 27.0414C10.2131 27.1609 10.127 27.2665 10.0226 27.3519C9.91825 27.4373 9.79766 27.5007 9.66813 27.5383C9.53861 27.5759 9.40281 27.5868 9.26893 27.5706C9.13504 27.5543 9.00583 27.5111 8.88907 27.4436C8.7723 27.3762 8.6704 27.2857 8.58948 27.1778C8.50856 27.0699 8.45031 26.9468 8.41823 26.8158C8.38614 26.6848 8.38088 26.5487 8.40277 26.4156C8.42466 26.2825 8.47324 26.1552 8.5456 26.0414C9.51509 24.3756 10.9933 23.0647 12.7631 22.3014C11.7673 21.5389 11.0354 20.4836 10.6703 19.2837C10.3053 18.0838 10.3255 16.7996 10.728 15.6118C11.1305 14.4239 11.8952 13.3921 12.9144 12.6612C13.9337 11.9304 15.1564 11.5374 16.4106 11.5374C17.6648 11.5374 18.8875 11.9304 19.9068 12.6612C20.926 13.3921 21.6907 14.4239 22.0932 15.6118C22.4957 16.7996 22.5159 18.0838 22.1508 19.2837C21.7858 20.4836 21.0539 21.5389 20.0581 22.3014C21.8279 23.0647 23.3061 24.3756 24.2756 26.0414ZM16.4106 21.5414C17.2017 21.5414 17.9751 21.3068 18.6329 20.8673C19.2907 20.4278 19.8034 19.803 20.1061 19.0721C20.4089 18.3412 20.4881 17.537 20.3337 16.761C20.1794 15.9851 19.7984 15.2724 19.239 14.713C18.6796 14.1536 17.9669 13.7726 17.191 13.6183C16.415 13.4639 15.6108 13.5431 14.8799 13.8459C14.149 14.1486 13.5242 14.6613 13.0847 15.3191C12.6452 15.9769 12.4106 16.7503 12.4106 17.5414C12.4106 18.6023 12.832 19.6197 13.5822 20.3698C14.3323 21.12 15.3497 21.5414 16.4106 21.5414ZM9.4106 14.5414C9.4106 14.2762 9.30524 14.0218 9.1177 13.8343C8.93017 13.6468 8.67581 13.5414 8.4106 13.5414C7.84951 13.5414 7.29968 13.384 6.82356 13.0871C6.34744 12.7902 5.96412 12.3658 5.71714 11.862C5.47015 11.3581 5.36941 10.7952 5.42634 10.237C5.48328 9.67879 5.69562 9.14775 6.03923 8.70418C6.38285 8.26061 6.84397 7.9223 7.37022 7.72767C7.89647 7.53304 8.46676 7.48989 9.0163 7.60313C9.56585 7.71637 10.0726 7.98145 10.4791 8.36826C10.8855 8.75508 11.1753 9.24813 11.3156 9.7914C11.3819 10.0483 11.5476 10.2684 11.7761 10.4032C12.0047 10.538 12.2774 10.5765 12.5343 10.5102C12.7913 10.4438 13.0113 10.2782 13.1461 10.0496C13.2809 9.82107 13.3194 9.54833 13.2531 9.2914C13.0584 8.53804 12.6906 7.84052 12.1789 7.25434C11.6672 6.66816 11.0257 6.20949 10.3055 5.91484C9.58538 5.62019 8.80638 5.49768 8.03054 5.55706C7.2547 5.61645 6.50343 5.85609 5.8365 6.25692C5.16958 6.65774 4.6054 7.20869 4.18887 7.86592C3.77234 8.52316 3.51495 9.26854 3.43718 10.0427C3.35941 10.817 3.46341 11.5986 3.7409 12.3256C4.01839 13.0525 4.46171 13.7047 5.0356 14.2302C3.6772 14.8195 2.49649 15.7537 1.6106 16.9402C1.4513 17.1523 1.38281 17.4191 1.42021 17.6818C1.4576 17.9444 1.5978 18.1815 1.80997 18.3408C2.02214 18.5001 2.28891 18.5686 2.55158 18.5312C2.81424 18.4938 3.0513 18.3536 3.2106 18.1414C3.81333 17.3312 4.59786 16.6739 5.50104 16.2223C6.40422 15.7707 7.40082 15.5375 8.4106 15.5414C8.67581 15.5414 8.93017 15.436 9.1177 15.2485C9.30524 15.061 9.4106 14.8066 9.4106 14.5414Z"/>
</svg>
