<svg width="32" height="32" viewBox="0 0 32 32" fill="none" xmlns="http://www.w3.org/2000/svg">
<path d="M26.1988 3.82593H23.1988V2.82593C23.1988 2.56071 23.0934 2.30636 22.9059 2.11882C22.7184 1.93128 22.464 1.82593 22.1988 1.82593C21.9336 1.82593 21.6792 1.93128 21.4917 2.11882C21.3041 2.30636 21.1988 2.56071 21.1988 2.82593V3.82593H11.1988V2.82593C11.1988 2.56071 11.0934 2.30636 10.9059 2.11882C10.7184 1.93128 10.464 1.82593 10.1988 1.82593C9.93358 1.82593 9.67922 1.93128 9.49168 2.11882C9.30415 2.30636 9.19879 2.56071 9.19879 2.82593V3.82593H6.19879C5.66836 3.82593 5.15965 4.03664 4.78458 4.41171C4.40951 4.78679 4.19879 5.29549 4.19879 5.82593V25.8259C4.19879 26.3564 4.40951 26.8651 4.78458 27.2401C5.15965 27.6152 5.66836 27.8259 6.19879 27.8259H26.1988C26.7292 27.8259 27.2379 27.6152 27.613 27.2401C27.9881 26.8651 28.1988 26.3564 28.1988 25.8259V5.82593C28.1988 5.29549 27.9881 4.78679 27.613 4.41171C27.2379 4.03664 26.7292 3.82593 26.1988 3.82593ZM9.19879 5.82593V6.82593C9.19879 7.09114 9.30415 7.3455 9.49168 7.53303C9.67922 7.72057 9.93358 7.82593 10.1988 7.82593C10.464 7.82593 10.7184 7.72057 10.9059 7.53303C11.0934 7.3455 11.1988 7.09114 11.1988 6.82593V5.82593H21.1988V6.82593C21.1988 7.09114 21.3041 7.3455 21.4917 7.53303C21.6792 7.72057 21.9336 7.82593 22.1988 7.82593C22.464 7.82593 22.7184 7.72057 22.9059 7.53303C23.0934 7.3455 23.1988 7.09114 23.1988 6.82593V5.82593H26.1988V9.82593H6.19879V5.82593H9.19879ZM26.1988 25.8259H6.19879V11.8259H26.1988V25.8259ZM21.4063 15.1184C21.4993 15.2113 21.573 15.3216 21.6234 15.443C21.6737 15.5644 21.6996 15.6945 21.6996 15.8259C21.6996 15.9573 21.6737 16.0875 21.6234 16.2089C21.573 16.3303 21.4993 16.4406 21.4063 16.5334L15.4063 22.5334C15.3134 22.6264 15.2031 22.7002 15.0817 22.7505C14.9603 22.8008 14.8302 22.8267 14.6988 22.8267C14.5674 22.8267 14.4372 22.8008 14.3159 22.7505C14.1945 22.7002 14.0842 22.6264 13.9913 22.5334L10.9913 19.5334C10.8037 19.3458 10.6982 19.0913 10.6982 18.8259C10.6982 18.5606 10.8037 18.3061 10.9913 18.1184C11.1789 17.9308 11.4334 17.8254 11.6988 17.8254C11.9642 17.8254 12.2187 17.9308 12.4063 18.1184L14.6988 20.4122L19.9913 15.1184C20.0842 15.0255 20.1945 14.9517 20.3159 14.9014C20.4373 14.851 20.5674 14.8251 20.6988 14.8251C20.8302 14.8251 20.9603 14.851 21.0817 14.9014C21.2031 14.9517 21.3134 15.0255 21.4063 15.1184Z"/>
</svg>
