<svg width="32" height="32" viewBox="0 0 32 32" fill="none" xmlns="http://www.w3.org/2000/svg">
<path d="M28.3825 9.55522L12.3825 25.5552C12.2896 25.6482 12.1793 25.722 12.0579 25.7723C11.9365 25.8226 11.8064 25.8485 11.675 25.8485C11.5436 25.8485 11.4135 25.8226 11.2921 25.7723C11.1707 25.722 11.0604 25.6482 10.9675 25.5552L3.96749 18.5552C3.77985 18.3676 3.67444 18.1131 3.67444 17.8477C3.67444 17.5824 3.77985 17.3279 3.96749 17.1402C4.15514 16.9526 4.40963 16.8472 4.67499 16.8472C4.94036 16.8472 5.19485 16.9526 5.38249 17.1402L11.675 23.434L26.9675 8.14022C27.1551 7.95258 27.4096 7.84717 27.675 7.84717C27.9404 7.84717 28.1949 7.95258 28.3825 8.14022C28.5701 8.32786 28.6756 8.58236 28.6756 8.84772C28.6756 9.11309 28.5701 9.36758 28.3825 9.55522Z" fill="white"/>
</svg>
