<svg width="32" height="32" viewBox="0 0 32 32" fill="none" xmlns="http://www.w3.org/2000/svg">
<path d="M22.4034 3.79126C19.8221 3.79126 17.5621 4.90126 16.1534 6.77751C14.7446 4.90126 12.4846 3.79126 9.90335 3.79126C7.84863 3.79358 5.87874 4.61084 4.42583 6.06374C2.97293 7.51665 2.15567 9.48654 2.15335 11.5413C2.15335 20.2913 15.1271 27.3738 15.6796 27.6663C15.8252 27.7446 15.988 27.7856 16.1534 27.7856C16.3187 27.7856 16.4815 27.7446 16.6271 27.6663C17.1796 27.3738 30.1534 20.2913 30.1534 11.5413C30.151 9.48654 29.3338 7.51665 27.8809 6.06374C26.428 4.61084 24.4581 3.79358 22.4034 3.79126ZM16.1534 25.6413C13.8709 24.3113 4.15335 18.2525 4.15335 11.5413C4.15534 10.0169 4.76177 8.55549 5.83968 7.47759C6.91758 6.39968 8.37897 5.79324 9.90335 5.79126C12.3346 5.79126 14.3759 7.08626 15.2284 9.16626C15.3037 9.34967 15.4319 9.50654 15.5966 9.61695C15.7613 9.72735 15.9551 9.78629 16.1534 9.78629C16.3516 9.78629 16.5454 9.72735 16.7101 9.61695C16.8748 9.50654 17.003 9.34967 17.0784 9.16626C17.9309 7.08251 19.9721 5.79126 22.4034 5.79126C23.9277 5.79324 25.3891 6.39968 26.467 7.47759C27.5449 8.55549 28.1514 10.0169 28.1534 11.5413C28.1534 18.2425 18.4334 24.31 16.1534 25.6413Z"/>
</svg>
