<svg width="33" height="33" viewBox="0 0 33 33" fill="none" xmlns="http://www.w3.org/2000/svg">
<path d="M10.9523 8.98615C10.9523 8.72093 11.0577 8.46657 11.2452 8.27904C11.4328 8.0915 11.6871 7.98615 11.9523 7.98615H27.9523C28.2175 7.98615 28.4719 8.0915 28.6594 8.27904C28.847 8.46657 28.9523 8.72093 28.9523 8.98615C28.9523 9.25136 28.847 9.50572 28.6594 9.69325C28.4719 9.88079 28.2175 9.98615 27.9523 9.98615H11.9523C11.6871 9.98615 11.4328 9.88079 11.2452 9.69325C11.0577 9.50572 10.9523 9.25136 10.9523 8.98615ZM27.9523 15.9861H11.9523C11.6871 15.9861 11.4328 16.0915 11.2452 16.279C11.0577 16.4666 10.9523 16.7209 10.9523 16.9861C10.9523 17.2514 11.0577 17.5057 11.2452 17.6933C11.4328 17.8808 11.6871 17.9861 11.9523 17.9861H27.9523C28.2175 17.9861 28.4719 17.8808 28.6594 17.6933C28.847 17.5057 28.9523 17.2514 28.9523 16.9861C28.9523 16.7209 28.847 16.4666 28.6594 16.279C28.4719 16.0915 28.2175 15.9861 27.9523 15.9861ZM27.9523 23.9861H11.9523C11.6871 23.9861 11.4328 24.0915 11.2452 24.279C11.0577 24.4666 10.9523 24.7209 10.9523 24.9861C10.9523 25.2514 11.0577 25.5057 11.2452 25.6933C11.4328 25.8808 11.6871 25.9861 11.9523 25.9861H27.9523C28.2175 25.9861 28.4719 25.8808 28.6594 25.6933C28.847 25.5057 28.9523 25.2514 28.9523 24.9861C28.9523 24.7209 28.847 24.4666 28.6594 24.279C28.4719 24.0915 28.2175 23.9861 27.9523 23.9861ZM6.45233 7.48615C6.15566 7.48615 5.86565 7.57412 5.61898 7.73894C5.3723 7.90376 5.18004 8.13803 5.06651 8.41212C4.95298 8.68621 4.92328 8.98781 4.98115 9.27878C5.03903 9.56975 5.18189 9.83703 5.39167 10.0468C5.60145 10.2566 5.86873 10.3994 6.1597 10.4573C6.45067 10.5152 6.75227 10.4855 7.02636 10.372C7.30045 10.2584 7.53471 10.0662 7.69954 9.8195C7.86436 9.57283 7.95233 9.28282 7.95233 8.98615C7.95233 8.58832 7.7943 8.20679 7.51299 7.92548C7.23169 7.64418 6.85016 7.48615 6.45233 7.48615ZM6.45233 15.4861C6.15566 15.4861 5.86565 15.5741 5.61898 15.7389C5.3723 15.9038 5.18004 16.138 5.06651 16.4121C4.95298 16.6862 4.92328 16.9878 4.98115 17.2788C5.03903 17.5698 5.18189 17.837 5.39167 18.0468C5.60145 18.2566 5.86873 18.3994 6.1597 18.4573C6.45067 18.5152 6.75227 18.4855 7.02636 18.372C7.30045 18.2584 7.53471 18.0662 7.69954 17.8195C7.86436 17.5728 7.95233 17.2828 7.95233 16.9861C7.95233 16.5883 7.7943 16.2068 7.51299 15.9255C7.23169 15.6442 6.85016 15.4861 6.45233 15.4861ZM6.45233 23.4861C6.15566 23.4861 5.86565 23.5741 5.61898 23.7389C5.3723 23.9038 5.18004 24.138 5.06651 24.4121C4.95298 24.6862 4.92328 24.9878 4.98115 25.2788C5.03903 25.5698 5.18189 25.837 5.39167 26.0468C5.60145 26.2566 5.86873 26.3994 6.1597 26.4573C6.45067 26.5152 6.75227 26.4855 7.02636 26.372C7.30045 26.2584 7.53471 26.0662 7.69954 25.8195C7.86436 25.5728 7.95233 25.2828 7.95233 24.9861C7.95233 24.5883 7.7943 24.2068 7.51299 23.9255C7.23169 23.6442 6.85016 23.4861 6.45233 23.4861Z"/>
</svg>
