<svg width="10" height="10" viewBox="0 0 10 10" fill="none" xmlns="http://www.w3.org/2000/svg">
<g clip-path="url(#clip0_2987_1844)">
<path fill-rule="evenodd" clip-rule="evenodd" d="M1 4.10286C1.00772 1.82921 2.85714 -0.00767633 5.13078 2.41226e-05C7.40443 0.00777312 9.24132 1.85719 9.23362 4.13083V4.17746C9.20562 5.6554 8.3804 7.02145 7.36868 8.08911C6.79008 8.68995 6.14395 9.22188 5.44316 9.67429C5.25577 9.83638 4.97782 9.83638 4.79044 9.67429C3.74573 8.9943 2.82882 8.13578 2.08165 7.13801C1.41571 6.26793 1.03762 5.21188 1 4.11685V4.10286Z"  stroke-width="0.5" stroke-linecap="round" stroke-linejoin="round"/>
<path d="M5.11662 5.50154C5.84535 5.50154 6.43611 4.91078 6.43611 4.18205C6.43611 3.45331 5.84535 2.86255 5.11662 2.86255C4.38788 2.86255 3.79712 3.45331 3.79712 4.18205C3.79712 4.91078 4.38788 5.50154 5.11662 5.50154Z" stroke="#F9FAFC" stroke-width="0.5" stroke-linecap="round" stroke-linejoin="round"/>
</g>
<defs>
<clipPath id="clip0_2987_1844">
<rect width="10" height="10" fill="white"/>
</clipPath>
</defs>
</svg>
