<svg width="40" height="41" viewBox="0 0 40 41" fill="none" xmlns="http://www.w3.org/2000/svg">
<path d="M39.6334 16.2364L33.3837 9.87325C33.2676 9.75492 33.1298 9.66105 32.978 9.59701C32.8263 9.53296 32.6636 9.5 32.4994 9.5C32.3351 9.5 32.1725 9.53296 32.0207 9.59701C31.869 9.66105 31.7311 9.75492 31.6151 9.87325L26.2497 15.3376L20.8843 9.87325C20.7682 9.75492 20.6304 9.66105 20.4787 9.59701C20.3269 9.53296 20.1643 9.5 20 9.5C19.8357 9.5 19.6731 9.53296 19.5213 9.59701C19.3696 9.66105 19.2318 9.75492 19.1157 9.87325L13.7503 15.3376L8.38495 9.87325C8.26886 9.75492 8.13101 9.66105 7.97927 9.59701C7.82753 9.53296 7.66488 9.5 7.50062 9.5C7.33635 9.5 7.1737 9.53296 7.02196 9.59701C6.87022 9.66105 6.73237 9.75492 6.61628 9.87325L0.36659 16.2364C0.250375 16.3546 0.158181 16.495 0.095279 16.6495C0.0323767 16.804 0 16.9696 0 17.1368C0 17.3041 0.0323767 17.4697 0.095279 17.6242C0.158181 17.7787 0.250375 17.919 0.36659 18.0372L6.61628 24.4004C6.73237 24.5187 6.87022 24.6126 7.02196 24.6766C7.1737 24.7407 7.33635 24.7736 7.50062 24.7736C7.66488 24.7736 7.82753 24.7407 7.97927 24.6766C8.13101 24.6126 8.26886 24.5187 8.38495 24.4004L13.7503 18.936L18.2329 23.5L12.866 28.9628C12.7498 29.081 12.6576 29.2213 12.5947 29.3758C12.5318 29.5303 12.4994 29.6959 12.4994 29.8632C12.4994 30.0304 12.5318 30.196 12.5947 30.3505C12.6576 30.505 12.7498 30.6454 12.866 30.7636L19.1157 37.1268C19.2318 37.2451 19.3696 37.3389 19.5213 37.403C19.6731 37.467 19.8357 37.5 20 37.5C20.1643 37.5 20.3269 37.467 20.4787 37.403C20.6304 37.3389 20.7682 37.2451 20.8843 37.1268L27.134 30.7636C27.2502 30.6454 27.3424 30.505 27.4053 30.3505C27.4682 30.196 27.5006 30.0304 27.5006 29.8632C27.5006 29.6959 27.4682 29.5303 27.4053 29.3758C27.3424 29.2213 27.2502 29.081 27.134 28.9628L21.7671 23.5L26.2497 18.936L31.6151 24.4004C31.7311 24.5187 31.869 24.6126 32.0207 24.6766C32.1725 24.7407 32.3351 24.7736 32.4994 24.7736C32.6636 24.7736 32.8263 24.7407 32.978 24.6766C33.1298 24.6126 33.2676 24.5187 33.3837 24.4004L39.6334 18.0372C39.7496 17.919 39.8418 17.7787 39.9047 17.6242C39.9676 17.4697 40 17.3041 40 17.1368C40 16.9696 39.9676 16.804 39.9047 16.6495C39.8418 16.495 39.7496 16.3546 39.6334 16.2364ZM7.50062 21.7008L3.01802 17.1368L7.50062 12.5728L11.9832 17.1368L7.50062 21.7008ZM20 34.4272L15.5174 29.8632L20 25.2992L24.4826 29.8632L20 34.4272ZM20 21.7008L15.5174 17.1368L20 12.5728L24.4826 17.1368L20 21.7008ZM32.4994 21.7008L28.0168 17.1368L32.4994 12.5728L36.982 17.1368L32.4994 21.7008Z" fill="url(#paint0_linear_2919_1917)"/>
<defs>
<linearGradient id="paint0_linear_2919_1917" x1="0.480001" y1="13" x2="70.9022" y2="16.925" gradientUnits="userSpaceOnUse">
<stop stop-color="#6D50A0"/>
<stop offset="0.46875" stop-color="#DB7EEF"/>
<stop offset="0.46885" stop-color="#DD7FF0"/>
<stop offset="0.5" stop-color="#E983F7"/>
<stop offset="0.5001" stop-color="#E983F7"/>
<stop offset="0.5002" stop-color="#EB83F9"/>
<stop offset="0.5003" stop-color="#EC84F9"/>
<stop offset="0.5625" stop-color="#F687FF"/>
<stop offset="0.5626" stop-color="#F687FF"/>
</linearGradient>
</defs>
</svg>
